#Comment line ignore any data following # character 
#Hierarchical Translation and Rotation (.htr) file 
[Header]	
#Header keywords are followed by a single value 
FileType HTR		#Single word string
DataType HTRS		#Translation followed by rotation and scale data
FileVersion 1		#integer
NumSegments 64		#integer
NumFrames 3		#integer
DataFrameRate 30		#integer, data frame rate in this file
EulerRotationOrder ZYX
CalibrationUnits mm
RotationUnits Degrees
GlobalAxisofGravity Y
BoneLengthAxis Y
ScaleFactor 1.00
[SegmentNames&Hierarchy]
#CHILD	PARENT
Pinger_Root GLOBAL
Pelvis Pinger_Root
L_Hip Pelvis
R_Hip Pelvis
Rear_Leg01 Pelvis
Spine1 Pelvis
L_Leg01 L_Hip
L_Leg02 L_Leg01
L_Leg03 L_Leg02
L_Foot L_Leg03
L_Toe1_01 L_Foot
L_Toe2_01 L_Foot
L_Toe3_01 L_Foot
planeAlignerLeft L_Foot
L_Toe1_02 L_Toe1_01
L_Toe1_03 L_Toe1_02
L_Toe2_02 L_Toe2_01
L_Toe2_03 L_Toe2_02
L_Toe3_02 L_Toe3_01
L_Toe3_03 L_Toe3_02
planeLockWeightLeft planeAlignerLeft
R_Leg01 R_Hip
R_Leg02 R_Leg01
R_Leg03 R_Leg02
R_Foot R_Leg03
planeAlignerRight R_Foot
R_Toe1_01 R_Foot
R_Toe2_01 R_Foot
R_Toe3_01 R_Foot
planeLockWeightRight planeAlignerRight
R_Toe1_02 R_Toe1_01
R_Toe1_03 R_Toe1_02
R_Toe2_02 R_Toe2_01
R_Toe2_03 R_Toe2_02
R_Toe3_02 R_Toe3_01
R_Toe3_03 R_Toe3_02
Rear_Leg02 Rear_Leg01
Rear_Leg03 Rear_Leg02
Rear_Leg04 Rear_Leg03
Rear_Foot Rear_Leg04
planeAlignerCenter Rear_Foot
Rear_Toe1_01 Rear_Foot
Rear_Toe2_01 Rear_Foot
Rear_Toe3_01 Rear_Foot
planeLockWeightCenter planeAlignerCenter
Rear_Toe1_02 Rear_Toe1_01
Rear_Toe1_03 Rear_Toe1_02
Rear_Toe2_02 Rear_Toe2_01
Rear_Toe2_03 Rear_Toe2_02
Rear_Toe3_02 Rear_Toe3_01
Rear_Toe3_03 Rear_Toe3_02
Back_Bone Spine1
Head Spine1
Motor_Bone Back_Bone
Ping_Mechanism Back_Bone
BN_LookIK Head
bottomMouth Head
L_Mouth01 Head
L_mouthFront Head
mouthGun Head
R_Mouth01 Head
R_mouthFront Head
TopMouth Head
weapon_bone Head
[BasePosition]
#SegmentName Tx, Ty, Tz, Rx, Ry, Rz, BoneLength
Pinger_Root 0.000000 0.000000 0.000000 -90.000000 0.000000 0.000000 10.000000 
Pelvis 0.000000 0.000000 0.000000 0.000000 0.000000 0.000000 10.000000 
L_Hip 0.000000 0.000000 0.000000 0.000000 0.000000 0.000000 10.000000 
R_Hip 0.000000 0.000000 0.000000 0.000000 0.000000 0.000000 10.000000 
Rear_Leg01 0.000000 0.000000 0.000000 0.000000 0.000000 0.000000 10.000000 
Spine1 0.000000 0.000000 0.000000 0.000000 0.000000 0.000000 10.000000 
L_Leg01 0.000000 0.000000 0.000000 0.000000 0.000000 0.000000 10.000000 
L_Leg02 0.000000 0.000000 0.000000 0.000000 0.000000 0.000000 10.000000 
L_Leg03 0.000000 0.000000 0.000000 0.000000 0.000000 0.000000 10.000000 
L_Foot 0.000000 0.000000 0.000000 0.000000 0.000000 0.000000 10.000000 
L_Toe1_01 0.000000 0.000000 0.000000 0.000000 0.000000 0.000000 10.000000 
L_Toe2_01 0.000000 0.000000 0.000000 0.000000 0.000000 0.000000 10.000000 
L_Toe3_01 0.000000 0.000000 0.000000 0.000000 0.000000 0.000000 10.000000 
planeAlignerLeft 0.000000 0.000000 0.000000 0.000000 0.000000 0.000000 10.000000 
L_Toe1_02 0.000000 0.000000 0.000000 0.000000 0.000000 0.000000 10.000000 
L_Toe1_03 0.000000 0.000000 0.000000 0.000000 0.000000 0.000000 10.000000 
L_Toe2_02 0.000000 0.000000 0.000000 0.000000 0.000000 0.000000 10.000000 
L_Toe2_03 0.000000 0.000000 0.000000 0.000000 0.000000 0.000000 10.000000 
L_Toe3_02 0.000000 0.000000 0.000000 0.000000 0.000000 0.000000 10.000000 
L_Toe3_03 0.000000 0.000000 0.000000 0.000000 0.000000 0.000000 10.000000 
planeLockWeightLeft 0.000000 0.000000 0.000000 0.000000 0.000000 0.000000 10.000000 
R_Leg01 0.000000 0.000000 0.000000 0.000000 0.000000 0.000000 10.000000 
R_Leg02 0.000000 0.000000 0.000000 0.000000 0.000000 0.000000 10.000000 
R_Leg03 0.000000 0.000000 0.000000 0.000000 0.000000 0.000000 10.000000 
R_Foot 0.000000 0.000000 0.000000 0.000000 0.000000 0.000000 10.000000 
planeAlignerRight 0.000000 0.000000 0.000000 0.000000 0.000000 0.000000 10.000000 
R_Toe1_01 0.000000 0.000000 0.000000 0.000000 0.000000 0.000000 10.000000 
R_Toe2_01 0.000000 0.000000 0.000000 0.000000 0.000000 0.000000 10.000000 
R_Toe3_01 0.000000 0.000000 0.000000 0.000000 0.000000 0.000000 10.000000 
planeLockWeightRight 0.000000 0.000000 0.000000 0.000000 0.000000 0.000000 10.000000 
R_Toe1_02 0.000000 0.000000 0.000000 0.000000 0.000000 0.000000 10.000000 
R_Toe1_03 0.000000 0.000000 0.000000 0.000000 0.000000 0.000000 10.000000 
R_Toe2_02 0.000000 0.000000 0.000000 0.000000 0.000000 0.000000 10.000000 
R_Toe2_03 0.000000 0.000000 0.000000 0.000000 0.000000 0.000000 10.000000 
R_Toe3_02 0.000000 0.000000 0.000000 0.000000 0.000000 0.000000 10.000000 
R_Toe3_03 0.000000 0.000000 0.000000 0.000000 0.000000 0.000000 10.000000 
Rear_Leg02 0.000000 0.000000 0.000000 0.000000 0.000000 0.000000 10.000000 
Rear_Leg03 0.000000 0.000000 0.000000 0.000000 0.000000 0.000000 10.000000 
Rear_Leg04 0.000000 0.000000 0.000000 0.000000 0.000000 0.000000 10.000000 
Rear_Foot 0.000000 0.000000 0.000000 0.000000 0.000000 0.000000 10.000000 
planeAlignerCenter 0.000000 0.000000 0.000000 0.000000 0.000000 0.000000 10.000000 
Rear_Toe1_01 0.000000 0.000000 0.000000 0.000000 0.000000 0.000000 10.000000 
Rear_Toe2_01 0.000000 0.000000 0.000000 0.000000 0.000000 0.000000 10.000000 
Rear_Toe3_01 0.000000 0.000000 0.000000 0.000000 0.000000 0.000000 10.000000 
planeLockWeightCenter 0.000000 0.000000 0.000000 0.000000 0.000000 0.000000 10.000000 
Rear_Toe1_02 0.000000 0.000000 0.000000 0.000000 0.000000 0.000000 10.000000 
Rear_Toe1_03 0.000000 0.000000 0.000000 0.000000 0.000000 0.000000 10.000000 
Rear_Toe2_02 0.000000 0.000000 0.000000 0.000000 0.000000 0.000000 10.000000 
Rear_Toe2_03 0.000000 0.000000 0.000000 0.000000 0.000000 0.000000 10.000000 
Rear_Toe3_02 0.000000 0.000000 0.000000 0.000000 0.000000 0.000000 10.000000 
Rear_Toe3_03 0.000000 0.000000 0.000000 0.000000 0.000000 0.000000 10.000000 
Back_Bone 0.000000 0.000000 0.000000 0.000000 0.000000 0.000000 10.000000 
Head 0.000000 0.000000 0.000000 0.000000 0.000000 0.000000 10.000000 
Motor_Bone 0.000000 0.000000 0.000000 0.000000 0.000000 0.000000 10.000000 
Ping_Mechanism 0.000000 0.000000 0.000000 0.000000 0.000000 0.000000 10.000000 
BN_LookIK 0.000000 0.000000 0.000000 0.000000 0.000000 0.000000 10.000000 
bottomMouth 0.000000 0.000000 0.000000 0.000000 0.000000 0.000000 10.000000 
L_Mouth01 0.000000 0.000000 0.000000 0.000000 0.000000 0.000000 10.000000 
L_mouthFront 0.000000 0.000000 0.000000 0.000000 0.000000 0.000000 10.000000 
mouthGun 0.000000 0.000000 0.000000 0.000000 0.000000 0.000000 10.000000 
R_Mouth01 0.000000 0.000000 0.000000 0.000000 0.000000 0.000000 10.000000 
R_mouthFront 0.000000 0.000000 0.000000 0.000000 0.000000 0.000000 10.000000 
TopMouth 0.000000 0.000000 0.000000 0.000000 0.000000 0.000000 10.000000 
weapon_bone 0.000000 0.000000 0.000000 0.000000 0.000000 0.000000 10.000000 
#Beginning of Data. Separated by tabs
#Fr	Tx	Ty	Tz	Rx	Ry	Rz	SF
[Pinger_Root]
41 2500.000000 0.000220 0.000000 -0.000075 -0.000000 -0.000020 2500.000000
42 2500.000000 0.000220 0.000000 -0.000075 -0.000000 -0.000020 2500.000000
43 2500.000000 0.000220 0.000000 -0.000075 -0.000000 -0.000020 2500.000000
[Pelvis]
41 388.844086 1174.207520 4412.199219 -112.665581 -74.941811 104.553726 4582.298828
42 397.770508 1153.588501 4411.471191 -111.638817 -73.704216 101.613228 4577.124512
43 406.696899 1132.969360 4410.743652 -110.894432 -72.454521 98.949181 4572.054688
[L_Hip]
41 5.766392 125.831482 872.656799 -178.253311 -81.787758 87.381340 881.701050
42 5.766392 125.831482 872.656799 -178.253311 -81.787758 87.381340 881.701050
43 5.766392 125.831482 872.656799 -178.253311 -81.787758 87.381340 881.701050
[R_Hip]
41 5.765438 125.836372 -872.654907 -1.746690 81.787712 87.381248 881.699829
42 5.765438 125.836372 -872.654907 -1.746690 81.787712 87.381248 881.699829
43 5.765438 125.836372 -872.654907 -1.746690 81.787712 87.381248 881.699829
[Rear_Leg01]
41 -192.298416 -925.602966 -0.001907 -171.930862 -30.477417 168.176422 945.367432
42 -192.298416 -925.602966 -0.001907 -173.833298 -30.337402 167.966553 945.367432
43 -192.298416 -925.602966 -0.001907 -175.921936 -30.089380 168.078629 945.367432
[Spine1]
41 290.604584 5.007505 0.000477 6.716364 10.316316 16.789406 290.647736
42 290.604584 5.007505 0.000477 8.602174 9.386621 14.998215 290.647736
43 290.604584 5.007505 0.000477 10.143171 8.455973 13.094328 290.647736
[L_Leg01]
41 761.932007 -0.002384 -0.069261 43.994808 -33.880531 -38.497356 761.932068
42 761.932007 -0.002384 -0.069261 36.093822 -35.233715 -31.947025 761.932068
43 761.932007 -0.002384 -0.069261 30.248596 -36.896473 -25.455502 761.932068
[L_Leg02]
41 1441.140503 -0.000954 -0.000715 5.995606 1.387577 -134.075363 1441.140503
42 1441.140503 -0.000954 -0.000715 4.826929 0.549762 -133.435516 1441.140503
43 1441.140503 -0.000954 -0.000715 3.571395 0.010021 -131.451248 1441.140503
[L_Leg03]
41 1686.963989 -0.000715 -0.000954 -0.095627 0.055271 135.499741 1686.963989
42 1686.963989 -0.000715 -0.000954 -0.073442 0.037322 129.220184 1686.963989
43 1686.963989 -0.000715 -0.000954 -0.049427 0.021906 122.940590 1686.963989
[L_Foot]
41 3041.570068 -30.715107 11.297464 -5.488673 6.597742 64.359840 3041.746094
42 3041.570068 -30.715107 11.297464 -8.545156 5.987041 59.656799 3041.746094
43 3041.570068 -30.715107 11.297464 -12.546290 5.531944 49.843246 3041.746094
[L_Toe1_01]
41 -188.216690 -224.732346 -21.137953 89.343285 -2.562312 -157.950729 293.899567
42 -188.216690 -224.732346 -21.137953 89.447914 -2.835970 -159.427841 293.899567
43 -188.216690 -224.732346 -21.137953 89.537132 -3.082802 -160.021469 293.899567
[L_Toe2_01]
41 200.746536 -219.926590 148.838394 -73.828064 -4.081069 -71.980568 332.896027
42 200.746536 -219.926590 148.838394 -73.917427 -4.236312 -71.306534 332.896027
43 200.746536 -219.926590 148.838394 -74.703659 -7.029561 -63.621170 332.896027
[L_Toe3_01]
41 188.832520 -219.859131 -191.078659 -110.070320 2.881892 -72.833145 347.140900
42 188.832520 -219.859131 -191.078659 -109.802856 2.410679 -72.051720 347.140900
43 188.832520 -219.859131 -191.078659 -109.437531 7.347931 -65.450294 347.140900
[planeAlignerLeft]
41 159.371262 -767.335083 8.953903 0.000000 -89.884651 -90.107910 783.761780
42 171.948959 -762.485291 17.123898 0.000000 -89.881310 -90.110580 781.820618
43 172.457565 -756.020813 23.900196 0.000000 -89.871796 -90.113220 775.809387
[L_Toe1_02]
41 413.761139 0.000477 0.000000 0.001429 -20.423147 0.001429 413.761139
42 413.761139 0.000477 0.000000 0.001426 -20.820282 0.001426 413.761139
43 413.761139 0.000477 0.000000 0.001430 -20.287508 0.001430 413.761139
[L_Toe1_03]
41 464.317322 0.000358 -0.000089 0.131993 88.980675 0.131993 464.317322
42 464.317322 0.000358 -0.000089 0.053502 87.486038 0.053502 464.317322
43 464.317322 0.000358 -0.000089 0.000000 89.452492 0.000011 464.317322
[L_Toe2_02]
41 342.235809 -0.000477 0.000238 0.001182 -76.333267 0.001182 342.235809
42 342.235809 -0.000477 0.000238 0.001183 -75.848083 0.001183 342.235809
43 342.235809 -0.000477 0.000238 0.001184 -74.979164 0.001184 342.235809
[L_Toe2_03]
41 420.210846 -0.000715 0.000000 -179.992767 82.668404 -179.989258 420.210846
42 420.210846 -0.000715 0.000000 -179.989944 84.423676 -179.986435 420.210846
43 420.210846 -0.000715 0.000000 -179.977829 87.246429 -179.974319 420.210846
[L_Toe3_02]
41 329.270111 0.000954 0.000000 0.001178 -80.360451 0.001178 329.270111
42 329.270111 0.000954 0.000000 0.001178 -80.001717 0.001178 329.270111
43 329.270111 0.000954 0.000000 0.001178 -80.674812 0.001178 329.270111
[L_Toe3_03]
41 439.137451 -0.001907 0.000954 -179.995697 79.095154 -179.992188 439.137451
42 439.137451 -0.001907 0.000954 -179.994827 80.471703 -179.991333 439.137451
43 439.137451 -0.001907 0.000954 -179.996338 77.840897 -179.992828 439.137451
[planeLockWeightLeft]
41 156.247772 0.000305 -0.000305 -0.011826 -0.004376 0.005620 156.247757
42 499.994904 0.000458 -0.000172 -0.011826 -0.004376 0.005620 499.994904
43 843.744873 0.000610 -0.000038 -0.011826 -0.004376 0.005620 843.744873
[R_Leg01]
41 761.455627 -0.001907 -0.000358 122.766899 -50.263943 63.312164 761.455688
42 761.455627 -0.001907 -0.000358 122.092560 -53.253521 64.097496 761.455688
43 761.455627 -0.001907 -0.000358 121.166618 -55.755074 64.906998 761.455688
[R_Leg02]
41 1441.140625 0.000000 -0.000238 -0.398265 -0.020401 -128.279480 1441.140625
42 1441.140625 0.000000 -0.000238 -0.408246 -0.018301 -128.276718 1441.140625
43 1441.140625 0.000000 -0.000238 -0.419244 -0.028386 -127.974182 1441.140625
[R_Leg03]
41 1686.963989 0.000954 0.001431 0.032994 -0.015828 119.212784 1686.963989
42 1686.963989 0.000954 0.001431 0.035631 -0.016686 119.700691 1686.963989
43 1686.963989 0.000954 0.001431 0.038261 -0.017567 120.188629 1686.963989
[R_Foot]
41 3041.560059 -30.531288 -11.204481 8.478844 -5.862093 54.618450 3041.734131
42 3041.560059 -30.531288 -11.204481 7.694190 -5.494150 53.506695 3041.734131
43 3041.560059 -30.531288 -11.204481 6.903108 -5.141513 52.390820 3041.734131
[planeAlignerRight]
41 -41.841755 -759.430054 -109.167686 0.000000 -89.878052 -90.081230 768.376404
42 -40.158108 -784.011353 -96.631660 0.000000 -89.874886 -90.083138 790.964050
43 -37.687412 -800.922974 -84.839195 0.000000 -89.871796 -90.085030 806.285095
[R_Toe1_01]
41 -188.383347 -224.864899 21.052242 91.057976 0.996819 -148.731812 294.101532
42 -188.383347 -224.864899 21.052242 91.083603 0.391948 -146.765091 294.101532
43 -188.383347 -224.864899 21.052242 91.082458 -0.156949 -145.472580 294.101532
[R_Toe2_01]
41 200.637817 -220.002121 -148.787384 -101.620415 3.571565 -53.082283 332.857574
42 200.637817 -220.002121 -148.787384 -101.642395 2.746031 -54.220253 332.857574
43 200.637817 -220.002121 -148.787384 -101.595924 2.040108 -54.927879 332.857574
[R_Toe3_01]
41 188.606735 -220.092957 191.126343 -60.174843 -30.509710 -69.086205 347.192566
42 188.606735 -220.092957 191.126343 -59.700012 -30.049841 -70.551468 347.192566
43 188.606735 -220.092957 191.126343 -59.381077 -29.856895 -71.421326 347.192566
[planeLockWeightRight]
41 1000.000000 0.000000 -0.000290 -0.011823 -0.004379 -0.000027 1000.000000
42 1000.000000 0.000000 -0.000285 -0.011823 -0.004379 -0.000027 1000.000000
43 1000.000000 0.000000 -0.000280 -0.011823 -0.004379 -0.000027 1000.000000
[R_Toe1_02]
41 413.762085 0.000477 -0.000119 0.001385 -25.870827 0.001385 413.762085
42 413.762085 0.000477 -0.000119 0.001387 -25.571615 0.001387 413.762085
43 413.762085 0.000477 -0.000119 0.001389 -25.272394 0.001389 413.762085
[R_Toe1_03]
41 464.317810 0.000000 0.001088 0.003321 48.594135 0.003321 464.317810
42 464.317810 0.000000 0.001088 0.003062 44.933464 0.003062 464.317810
43 464.317810 0.000000 0.001088 0.002920 42.604305 0.002920 464.317810
[R_Toe2_02]
41 342.234741 -0.000954 0.000238 0.001200 -65.707626 0.001200 342.234741
42 342.234741 -0.000954 0.000238 0.001204 -64.146294 0.001204 342.234741
43 342.234741 -0.000954 0.000238 0.001208 -62.584995 0.001208 342.234741
[R_Toe2_03]
41 420.210846 0.000715 -0.000268 -0.005192 70.644707 -0.001645 420.210846
42 420.210846 0.000715 -0.000268 -0.004727 67.486786 -0.001162 420.210846
43 420.210846 0.000715 -0.000268 -0.004448 65.018219 -0.000867 420.210846
[R_Toe3_02]
41 329.270355 -0.000477 -0.000954 -0.000582 -71.986549 -0.000582 329.270355
42 329.270355 -0.000477 -0.000954 -0.001472 -69.832130 -0.001472 329.270355
43 329.270355 -0.000477 -0.000954 -0.002368 -67.679146 -0.002368 329.270355
[R_Toe3_03]
41 439.137939 0.000238 0.001431 0.010833 77.561501 0.010833 439.137939
42 439.137939 0.000238 0.001431 0.007910 72.934166 0.007910 439.137939
43 439.137939 0.000238 0.001431 0.006463 69.076286 0.006463 439.137939
[Rear_Leg02]
41 1162.777710 -0.029802 0.005960 15.502467 -15.042443 -141.693466 1162.777710
42 1162.777710 -0.029802 0.005960 15.122957 -15.023758 -140.271179 1162.777710
43 1162.777710 -0.029802 0.005960 14.744139 -14.995984 -138.849396 1162.777710
[Rear_Leg03]
41 607.192505 -0.013351 -0.073195 0.010159 -0.005741 75.295876 607.192505
42 607.192505 -0.013351 -0.073195 0.010172 -0.005716 75.020767 607.192505
43 607.192505 -0.013351 -0.073195 0.010184 -0.005697 74.799637 607.192505
[Rear_Leg04]
41 995.874512 -0.020504 -0.011921 -0.045812 -0.016422 83.975197 995.874573
42 995.874512 -0.020504 -0.011921 -0.045729 -0.016649 83.406288 995.874573
43 995.874512 -0.020504 -0.011921 -0.045660 -0.016840 82.927818 995.874573
[Rear_Foot]
41 3096.176270 -0.067472 -0.041425 -141.005417 55.104439 20.750616 3096.176270
42 3096.176270 -0.067472 -0.041425 -140.749771 55.741096 20.921219 3096.176270
43 3096.176270 -0.067472 -0.041425 -140.545822 56.360626 20.674459 3096.176270
[planeAlignerCenter]
41 1.497513 86.593605 -712.341003 0.001666 -0.001653 179.548279 717.586548
42 1.158910 86.998444 -710.291199 0.001663 -0.001656 179.773315 715.600281
43 0.820318 87.403252 -708.241455 0.001660 -0.001660 179.998337 713.614746
[Rear_Toe1_01]
41 0.653352 83.966492 -371.173737 0.046589 22.648045 89.543907 380.553192
42 0.653352 83.966492 -371.173737 0.051494 22.521280 89.789917 380.553192
43 0.653352 83.966492 -371.173737 0.055803 22.394493 90.035675 380.553192
[Rear_Toe2_01]
41 178.200760 -294.826019 -362.060547 0.974153 47.365067 -70.393341 499.765686
42 178.200760 -294.826019 -362.060547 1.084555 47.082569 -69.721306 499.765686
43 178.200760 -294.826019 -362.060547 1.118981 47.003750 -69.538368 499.765686
[Rear_Toe3_01]
41 -153.359680 -308.780914 -362.060852 -1.531317 47.369499 -113.794937 499.952881
42 -153.359680 -308.780914 -362.060852 -1.420375 47.091362 -113.154121 499.952881
43 -153.359680 -308.780914 -362.060852 -1.363762 47.067867 -113.107132 499.952881
[planeLockWeightCenter]
41 1000.000488 0.000496 -0.000065 -0.011814 -0.004373 -0.000015 1000.000488
42 1000.000488 0.000496 -0.000062 -0.011814 -0.004373 -0.000015 1000.000488
43 1000.000488 0.000496 -0.000059 -0.011814 -0.004373 -0.000015 1000.000488
[Rear_Toe1_02]
41 379.707825 0.194073 0.000477 -0.004349 -33.545074 0.003044 379.707855
42 379.707825 0.194073 0.000477 -0.004349 -33.544090 0.003044 379.707855
43 379.707825 0.194073 0.000477 -0.004349 -33.543106 0.003044 379.707855
[Rear_Toe1_03]
41 500.129700 0.165701 0.000119 0.006990 70.668907 0.006990 500.129761
42 500.129700 0.165701 0.000119 0.007021 70.753845 0.007021 500.129761
43 500.129700 0.165701 0.000119 0.007051 70.838745 0.007051 500.129761
[Rear_Toe2_02]
41 340.494507 0.000238 -0.000954 0.001175 -85.441086 0.001175 340.494507
42 340.494507 0.000238 -0.000954 0.001174 -85.741631 0.001174 340.494507
43 340.494507 0.000238 -0.000954 0.001174 -85.788765 0.001174 340.494507
[Rear_Toe2_03]
41 433.103577 0.000000 0.000238 179.986771 79.826385 179.986771 433.103546
42 433.103577 0.000000 0.000238 179.987396 79.310547 179.987396 433.103546
43 433.103577 0.000000 0.000238 179.987564 79.169289 179.987564 433.103546
[Rear_Toe3_02]
41 340.494141 -0.000358 -0.000477 0.001175 -85.519089 0.001175 340.494171
42 340.494141 -0.000358 -0.000477 0.001174 -85.603416 0.001174 340.494171
43 340.494141 -0.000358 -0.000477 0.001174 -85.687569 0.001174 340.494171
[Rear_Toe3_03]
41 433.103577 0.001431 -0.000238 -179.995178 79.971184 -179.991669 433.103546
42 433.103577 0.001431 -0.000238 -179.995438 79.561272 -179.991928 433.103546
43 433.103577 0.001431 -0.000238 -179.995499 79.451927 -179.991989 433.103546
[Back_Bone]
41 1312.175781 -701.934692 0.000954 -2.654448 3.184216 -86.515091 1488.125488
42 1312.175781 -701.934692 0.000954 -2.460048 3.187878 -85.319023 1488.125488
43 1312.175781 -701.934692 0.000954 -2.265590 3.187487 -84.122780 1488.125488
[Head]
41 1406.159424 809.709290 0.001431 3.442512 -12.216462 1.086221 1622.625488
42 1406.159424 809.709290 0.001431 3.306443 -11.940338 2.267865 1622.625488
43 1406.159424 809.709290 0.001431 3.176356 -11.661530 3.447644 1622.625488
[Motor_Bone]
41 1158.364380 -417.834747 0.000477 2.270557 -1.149508 -107.133392 1231.419434
42 1158.364380 -417.834747 0.000477 1.115501 -1.114906 -107.103577 1231.419434
43 1158.364380 -417.834747 0.000477 -1.031280 -1.047917 -107.028992 1231.419434
[Ping_Mechanism]
41 1282.737427 -459.372498 -23.290422 0.000103 -0.000053 82.120995 1362.710815
42 1289.761597 -462.565826 -22.180346 0.000103 -0.000053 82.120995 1370.380981
43 1295.409912 -465.810272 -18.909861 0.000103 -0.000053 82.120995 1376.743896
[BN_LookIK]
41 193.241119 1380.371704 -0.002861 0.000000 89.965736 -31.038179 1393.832153
42 193.241119 1380.371704 -0.002861 0.000000 89.965736 -31.038179 1393.832153
43 193.241119 1380.371704 -0.002861 0.000000 89.965736 -31.038179 1393.832153
[bottomMouth]
41 -435.092926 615.759399 -0.000954 -0.000022 0.000016 73.527184 753.966492
42 -435.092926 615.759399 -0.000954 -0.000022 0.000016 73.527184 753.966492
43 -435.092926 615.759399 -0.000954 -0.000022 0.000016 73.527184 753.966492
[L_Mouth01]
41 554.440979 7.658243 838.222046 150.204178 23.759130 109.605339 1005.027161
42 554.440979 7.658243 838.222046 150.204178 23.759130 109.605339 1005.027161
43 554.440979 7.658243 838.222046 150.204178 23.759130 109.605339 1005.027161
[L_mouthFront]
41 551.629089 934.514771 339.150421 0.000081 2.804060 79.119301 1136.941284
42 551.629089 934.514771 339.150421 0.000081 2.804060 79.119301 1136.941284
43 551.629089 934.514771 339.150421 0.000081 2.804060 79.119301 1136.941284
[mouthGun]
41 55.332661 1627.420898 0.000000 0.000023 0.000009 -11.038128 1628.361328
42 55.332661 1627.420898 0.000000 0.000023 0.000009 -11.038128 1628.361328
43 55.332661 1627.420898 0.000000 0.000023 0.000009 -11.038128 1628.361328
[R_Mouth01]
41 554.442383 7.659197 -838.223938 29.795891 -23.759109 109.605331 1005.029541
42 554.442383 7.659197 -838.223938 29.795891 -23.759109 109.605331 1005.029541
43 554.442383 7.659197 -838.223938 29.795891 -23.759109 109.605331 1005.029541
[R_mouthFront]
41 551.629089 934.514282 -339.151367 0.000029 -2.803930 79.119133 1136.941162
42 551.629089 934.514282 -339.151367 0.000029 -2.803930 79.119133 1136.941162
43 551.629089 934.514282 -339.151367 0.000029 -2.803930 79.119133 1136.941162
[TopMouth]
41 461.269867 -56.106091 -0.008583 -0.000059 -0.000268 92.025169 464.669525
42 461.269867 -56.106091 -0.008583 -0.000059 -0.000268 92.025169 464.669525
43 461.269867 -56.106091 -0.008583 -0.000059 -0.000268 92.025169 464.669525
[weapon_bone]
41 -987.239868 1448.372803 0.001431 0.000000 89.965736 -31.038221 1752.833740
42 -987.239868 1448.372803 0.001431 0.000000 89.965736 -31.038221 1752.833740
43 -987.239868 1448.372803 0.001431 0.000000 89.965736 -31.038221 1752.833740
